#!OML:ASF X:\für Bonn\!DataBase\2005_08_11_Bastian_Final\c3d\Bastian.ASF
:FULLY-SPECIFIED
:DEGREES
417
root 1.33626 1.50133 24.8887 -801.368 -172.106 -717.163
lowerback 43.8477 3.92225 0.455582
upperback 26.6071 -7.9242 -0.696647
thorax 9.6482 -10.3284 0.151229
lowerneck -8.93018 -1.39174 -3.35047
upperneck 11.4891 -1.08817 -1.25149
head 4.93472 -0.694125 0.0892052
rclavicle 8.63549e-015 -3.3694e-014
rhumerus -47.8257 36.1041 -85.9211
rradius 68.3705
rwrist 7.31883
rhand -27.291 -0.338736
rfingers 7.12502
rthumb -0.701162 -30.3173
lclavicle 8.63549e-015 -3.3694e-014
lhumerus -34.5653 -39.459 74.0582
lradius 49.3961
lwrist 17.4309
lhand -28.9196 -16.8095
lfingers 7.12502
lthumb -2.27403 13.1581
rfemur -51.875 -12.3182 18.3449
rtibia 88.2519
rfoot 16.5482 -4.9898
rtoes -0.713157
lfemur -20.2615 1.72849 -27.2818
ltibia 27.1371
lfoot 10.1379 -3.25007
ltoes -28.4094
418
root 1.33161 1.50083 24.8945 -801.468 -172.227 -717.08
lowerback 43.5419 3.89844 0.372157
upperback 26.5947 -7.89401 -0.703304
thorax 9.70944 -10.288 0.16034
lowerneck -8.70349 -1.37758 -3.3976
upperneck 11.6368 -1.05514 -1.2616
head 4.94245 -0.676506 0.097425
rclavicle 1.10434e-014 -3.34207e-014
rhumerus -47.4007 35.7244 -86.0462
rradius 67.6258
rwrist 7.31976
rhand -27.5823 -0.0917537
rfingers 7.12502
rthumb -0.98245 -30.0692
lclavicle 1.10434e-014 -3.34207e-014
lhumerus -34.6534 -38.9402 74.2395
lradius 49.2887
lwrist 17.1157
lhand -29.0212 -16.9112
lfingers 7.12502
lthumb -2.37218 13.0554
rfemur -51.6057 -12.4152 18.3739
rtibia 87.9163
rfoot 16.3399 -4.98875
rtoes -0.41277
lfemur -19.3783 1.54513 -27.227
ltibia 26.0449
lfoot 10.3887 -3.51558
ltoes -28.5335
419
root 1.32637 1.49842 24.9023 -801.56 -172.374 -716.984
lowerback 43.2084 3.86612 0.318622
upperback 26.6015 -7.87199 -0.700558
thorax 9.80298 -10.2528 0.159482
lowerneck -8.50943 -1.35192 -3.41649
upperneck 11.7996 -1.00847 -1.27393
head 4.95992 -0.651438 0.10103
rclavicle 5.23906e-014 -1.90833e-014
rhumerus -47.0078 35.3491 -86.1732
rradius 66.9438
rwrist 7.34227
rhand -27.9639 0.0974417
rfingers 7.12502
rthumb -1.35107 -29.878
lclavicle 5.23906e-014 -1.90833e-014
lhumerus -34.7136 -38.4651 74.4271
lradius 49.1749
lwrist 16.8423
lhand -29.1874 -16.9813
lfingers 7.12502
lthumb -2.53272 12.9834
rfemur -51.3304 -12.4784 18.4297
rtibia 87.5105
rfoot 16.2351 -4.97995
rtoes -0.0173911
lfemur -18.5728 1.32493 -27.1367
ltibia 24.9587
lfoot 10.6902 -3.70716
ltoes -28.5175
420
root 1.32177 1.49759 24.914 -801.663 -172.545 -716.895
lowerback 42.8968 3.84021 0.268987
upperback 26.5948 -7.83982 -0.683119
thorax 9.8771 -10.2134 0.174081
lowerneck -8.25367 -1.33344 -3.42674
upperneck 11.9293 -0.970143 -1.32047
head 4.95661 -0.630912 0.0925273
rclavicle 4.38918e-014 -2.60035e-014
rhumerus -46.7594 35.0277 -86.326
rradius 66.3866
rwrist 7.36569
rhand -28.4309 0.226812
rfingers 7.12502
rthumb -1.80205 -29.7453
lclavicle 4.38918e-014 -2.60035e-014
lhumerus -34.7791 -37.9594 74.6151
lradius 49.0409
lwrist 16.5714
lhand -29.3057 -17.1193
lfingers 7.12502
lthumb -2.64697 12.844
rfemur -50.9979 -12.5097 18.507
rtibia 87.042
rfoot 16.1357 -4.96303
rtoes 0.38775
lfemur -17.8114 1.13609 -27.0198
ltibia 23.8898
lfoot 10.9514 -3.91028
ltoes -28.9456
421
root 1.31772 1.49639 24.9252 -801.777 -172.664 -716.811
lowerback 42.5856 3.82683 0.191737
upperback 26.6023 -7.80624 -0.676746
thorax 9.9699 -10.1784 0.186923
lowerneck -7.98311 -1.32399 -3.37838
upperneck 12.0359 -0.945628 -1.42076
head 4.9431 -0.6174 0.0570219
rclavicle -5.26112e-014 -1.86361e-016
rhumerus -46.5452 34.6737 -86.4921
rradius 65.8521
rwrist 7.45546
rhand -28.966 0.373068
rfingers 7.12502
rthumb -2.31891 -29.5941
lclavicle -5.26112e-014 -1.86361e-016
lhumerus -34.8082 -37.5384 74.7833
lradius 48.8831
lwrist 16.337
lhand -29.4389 -17.2494
lfingers 7.12502
lthumb -2.77561 12.7123
rfemur -50.6359 -12.5219 18.5109
rtibia 86.521
rfoot 16.0173 -4.96442
rtoes 0.793148
lfemur -17.0746 0.951276 -26.9579
ltibia 22.8484
lfoot 11.1945 -4.07785
ltoes -29.2988
422
root 1.31312 1.49521 24.9362 -801.89 -172.79 -716.736
lowerback 42.2601 3.82164 0.105932
upperback 26.62 -7.77119 -0.662502
thorax 10.0821 -10.1481 0.207943
lowerneck -7.74045 -1.30878 -3.35005
upperneck 12.1763 -0.911493 -1.49003
head 4.94492 -0.598223 0.0347695
rclavicle 2.66038e-014 -1.31695e-015
rhumerus -46.2904 34.3362 -86.6287
rradius 65.3008
rwrist 7.67918
rhand -29.5003 0.474064
rfingers 7.12502
rthumb -2.8349 -29.4868
lclavicle 2.66038e-014 -1.31695e-015
lhumerus -34.8582 -37.1011 74.9474
lradius 48.7801
lwrist 16.1434
lhand -29.5588 -17.3437
lfingers 7.12502
lthumb -2.89137 12.6164
rfemur -50.2342 -12.5287 18.5176
rtibia 85.9575
rfoot 15.8522 -4.94181
rtoes 1.23344
lfemur -16.371 0.73713 -26.8717
ltibia 21.8442
lfoot 11.4184 -4.16091
ltoes -29.4351
423
root 1.3082 1.49347 24.9475 -802.015 -172.917 -716.661
lowerback 41.9641 3.80384 0.0508332
upperback 26.628 -7.73877 -0.660571
thorax 10.1719 -10.1121 0.206318
lowerneck -7.46568 -1.29528 -3.31891
upperneck 12.2996 -0.881338 -1.55609
head 4.93604 -0.579899 0.0129912
rclavicle 5.561e-014 -3.91668e-014
rhumerus -46.0778 33.9718 -86.8078
rradius 64.7174
rwrist 8.0485
rhand -30.0685 0.496541
rfingers 7.12502
rthumb -3.38363 -29.4564
lclavicle 5.561e-014 -3.91668e-014
lhumerus -34.9106 -36.756 75.0948
lradius 48.6723
lwrist 15.9982
lhand -29.6625 -17.4432
lfingers 7.12502
lthumb -2.99156 12.5156
rfemur -49.7844 -12.512 18.5067
rtibia 85.3414
rfoot 15.6549 -4.9679
rtoes 1.66953
lfemur -15.6972 0.513797 -26.7833
ltibia 20.8938
lfoot 11.575 -4.17294
ltoes -29.2244
424
root 1.30415 1.49227 24.9574 -802.14 -173.059 -716.575
lowerback 41.6441 3.78865 -0.00267126
upperback 26.648 -7.70643 -0.648393
thorax 10.286 -10.0794 0.209596
lowerneck -7.18464 -1.287 -3.32141
upperneck 12.4302 -0.858749 -1.58027
head 4.9288 -0.563923 0.00916821
rclavicle 2.57634e-014 3.29874e-014
rhumerus -45.8843 33.6576 -86.9768
rradius 64.1776
rwrist 8.41765
rhand -30.6429 0.51318
rfingers 7.12502
rthumb -3.93832 -29.4302
lclavicle 2.57634e-014 3.29874e-014
lhumerus -34.9219 -36.3885 75.2282
lradius 48.5148
lwrist 15.8027
lhand -29.7612 -17.5857
lfingers 7.12502
lthumb -3.08681 12.3717
rfemur -49.2949 -12.4632 18.5041
rtibia 84.6786
rfoot 15.3844 -5.02808
rtoes 2.029
lfemur -15.0742 0.273433 -26.6748
ltibia 20.0129
lfoot 11.6556 -4.26921
ltoes -29.5356
425
root 1.29967 1.48989 24.9678 -802.289 -173.185 -716.488
lowerback 41.3502 3.77842 -0.0845902
upperback 26.6667 -7.68558 -0.61979
thorax 10.3977 -10.0626 0.249011
lowerneck -6.85109 -1.26986 -3.33937
upperneck 12.4831 -0.821901 -1.64286
head 4.88858 -0.542775 -0.00271475
rclavicle -3.6147e-014 9.47954e-015
rhumerus -45.6997 33.437 -87.0892
rradius 63.6445
rwrist 8.89939
rhand -31.1583 0.552327
rfingers 7.12502
rthumb -4.43595 -29.3812
lclavicle -3.6147e-014 9.47954e-015
lhumerus -34.9497 -36.0379 75.3951
lradius 48.3762
lwrist 15.6828
lhand -29.8714 -17.7096
lfingers 7.12502
lthumb -3.19325 12.2462
rfemur -48.7443 -12.4065 18.4733
rtibia 83.9509
rfoot 15.13 -5.04312
rtoes 2.14055
lfemur -14.4708 0.0481943 -26.584
ltibia 19.1871
lfoot 11.6502 -4.39601
ltoes -29.6963
